#N canvas 603 72 529 580 10;
#X obj 729 50 cnv 15 100 60 empty empty empty 20 12 0 14 -233017 -66577
0;
#X obj 131 175 hsl 128 15 0 1000 0 0 empty empty delay -2 -8 0 10 -262144
-1 -1 0 1;
#X obj 132 209 hsl 128 15 0 1 0 0 empty empty feedback -2 -8 0 10 -262144
-1 -1 0 1;
#X obj 333 124 bng 15 250 50 0 empty empty empty 17 7 0 10 -262144
-1 -1;
#X obj 262 41 inlet;
#X obj 363 40 inlet;
#X msg 247 13 0;
#X msg 311 13 0;
#X obj 131 128 hsl 128 15 0 1 0 0 empty empty mixer -2 -8 0 10 -262144
-1 -1 0 1;
#X msg 153 12 0;
#X floatatom 190 402 5 0 0 0 - - -;
#X floatatom 107 283 5 0 0 0 - - -;
#X obj 191 438 sig~;
#X obj 108 319 sig~;
#X obj 176 478 *~;
#X obj 177 517 s~ feedback;
#X obj 54 429 +~;
#X obj 54 468 outlet~;
#X obj -85 38 inlet~;
#X obj -13 37 r~ feedback;
#X obj -27 387 *~;
#X floatatom 20 346 5 0 0 0 - - -;
#X obj 160 44 inlet;
#X floatatom 283 127 5 0 0 0 - - -;
#X floatatom 285 172 5 0 0 0 - - -;
#X floatatom 286 215 5 0 0 0 - - -;
#X obj -4 321 * -1;
#X obj -4 286 - 1;
#X text 123 143 original;
#X text 239 144 modified;
#X obj 70 382 *~;
#X obj 418 42 inlet;
#X obj -61 85 delwrite~ delay1 1000;
#X obj 107 350 vd~ delay1;
#X connect 1 0 11 0;
#X connect 1 0 24 0;
#X connect 2 0 10 0;
#X connect 2 0 25 0;
#X connect 3 0 7 0;
#X connect 3 0 6 0;
#X connect 3 0 9 0;
#X connect 4 0 1 0;
#X connect 5 0 2 0;
#X connect 6 0 1 0;
#X connect 7 0 2 0;
#X connect 8 0 23 0;
#X connect 8 0 27 0;
#X connect 8 0 30 0;
#X connect 9 0 8 0;
#X connect 10 0 12 0;
#X connect 11 0 13 0;
#X connect 12 0 14 1;
#X connect 13 0 33 0;
#X connect 14 0 15 0;
#X connect 16 0 17 0;
#X connect 16 0 14 0;
#X connect 18 0 20 0;
#X connect 18 0 32 0;
#X connect 19 0 32 0;
#X connect 20 0 16 0;
#X connect 21 0 20 1;
#X connect 22 0 8 0;
#X connect 26 0 21 0;
#X connect 27 0 26 0;
#X connect 30 0 16 1;
#X connect 31 0 3 0;
#X connect 33 0 30 1;
#X coords 0 -1 1 1 300 150 1 100 100;
