#N canvas 386 90 664 630 10;
#X obj 429 47 cnv 15 100 60 empty empty empty 20 12 0 14 -233017 -66577
0;
#X obj 141 155 hsl 128 15 -1000 1000 0 0 empty empty -1000_frequency_shift_1000
-2 -8 0 10 -262144 -1 -1 6350 1;
#X floatatom 297 154 5 0 0 0 - - -;
#X obj 350 153 bng 15 250 50 0 empty empty empty 17 7 0 10 -262144
-1 -1;
#X obj 149 32 inlet;
#X msg 287 72 0;
#X obj 72 476 *~;
#X obj 71 622 outlet~;
#X floatatom 162 310 5 0 0 0 - - -;
#X obj 162 346 sig~;
#X obj 114 476 *~;
#X obj 58 47 inlet~;
#X obj 73 431 hilbert~;
#X obj 72 555 -~;
#X obj 162 380 phasor~;
#X obj 161 433 cos~;
#X obj 237 407 +~ -0.25;
#X obj 238 434 cos~;
#X obj 439 191 LFO~;
#X obj 141 190 hsl 128 15 0 127 0 0 empty empty speed -2 -8 0 10 -262144
-1 -1 0 1;
#X obj 142 227 hsl 128 15 0 500 0 0 empty empty depth -2 -8 0 10 -262144
-1 -1 0 1;
#X floatatom 298 187 5 0 0 0 - - -;
#X floatatom 299 223 5 0 0 0 - - -;
#X obj 216 33 inlet;
#X obj 278 33 inlet;
#X obj 73 590 *~;
#X obj 346 41 inlet;
#X connect 1 0 8 0;
#X connect 1 0 2 0;
#X connect 3 0 5 0;
#X connect 4 0 1 0;
#X connect 5 0 1 0;
#X connect 6 0 13 0;
#X connect 8 0 9 0;
#X connect 9 0 14 0;
#X connect 10 0 13 1;
#X connect 11 0 12 0;
#X connect 12 0 6 0;
#X connect 12 1 10 0;
#X connect 13 0 25 0;
#X connect 14 0 15 0;
#X connect 14 0 16 0;
#X connect 15 0 6 1;
#X connect 16 0 17 0;
#X connect 17 0 10 1;
#X connect 18 0 25 1;
#X connect 19 0 21 0;
#X connect 19 0 18 0;
#X connect 20 0 22 0;
#X connect 20 0 18 1;
#X connect 23 0 19 0;
#X connect 24 0 20 0;
#X connect 25 0 7 0;
#X connect 26 0 3 0;
#X coords 0 -1 1 1 300 200 1 100 100;
