#N canvas 0 23 1440 855 10;
#X obj -189 -305 bng 15 250 50 0 empty empty empty 17 7 0 10 -262144
-1 -1;
#X obj -189 -193 readsf~;
#X obj 104 759 spigot~;
#X obj 337 377 tgl 15 0 empty empty empty 17 7 0 10 -262144 -1 -1 0
1;
#X obj 424 769 spigot~;
#X obj 679 409 tgl 15 0 empty empty empty 17 7 0 10 -262144 -1 -1 0
1;
#X obj 410 322 frequencyshifter;
#X obj 640 175 hradio 50 1 0 6 empty empty empty 0 -8 0 10 -262144
-1 -1 0;
#X obj 717 321 flanger;
#X obj 949 390 tgl 15 0 empty empty empty 17 7 0 10 -262144 -1 -1 0
1;
#X obj 706 754 spigot~;
#X obj 1027 322 ringmodulation;
#X obj 1026 742 spigot~;
#X obj 1270 425 tgl 15 0 empty empty empty 17 7 0 10 -262144 -1 -1
0 1;
#X obj 1335 321 vibrato;
#X obj 1366 728 spigot~;
#X obj 1586 403 tgl 15 0 empty empty empty 17 7 0 10 -262144 -1 -1
0 1;
#X obj 607 -306 tgl 15 0 empty empty empty 17 7 0 10 -262144 -1 -1
0 1;
#X obj 640 -305 tgl 15 0 empty empty empty 17 7 0 10 -262144 -1 -1
0 1;
#X obj 698 -305 tgl 15 0 empty empty empty 17 7 0 10 -262144 -1 -1
0 1;
#X obj 744 -305 tgl 15 0 empty empty empty 17 7 0 10 -262144 -1 -1
0 1;
#X obj 642 -399 route 0 1 2 3 4 5;
#X obj 564 -307 tgl 15 0 empty empty empty 17 7 0 10 -262144 -1 -1
0 1;
#X obj 788 -287 bng 15 250 50 0 empty empty empty 17 7 0 10 -262144
-1 -1;
#X msg 184 73 0.9;
#X msg 257 55 0.9;
#X msg 217 61 10;
#X text 655 157 C3PO;
#X msg 547 75 300;
#X obj 566 -289 bng 15 250 50 0 empty empty empty 17 7 0 10 -262144
-1 -1;
#X obj 608 -287 bng 15 250 50 0 empty empty empty 17 7 0 10 -262144
-1 -1;
#X obj 640 -287 bng 15 250 50 0 empty empty empty 17 7 0 10 -262144
-1 -1;
#X msg 870 48 10;
#X msg 829 59 5;
#X msg 796 75 1;
#X msg 898 37 100;
#X text 798 158 Darlek;
#X obj 698 -287 bng 15 250 50 0 empty empty empty 17 7 0 10 -262144
-1 -1;
#X msg 1212 75 30;
#X msg 1234 53 500;
#X text 848 156 gollum;
#X obj 744 -287 bng 15 250 50 0 empty empty empty 17 7 0 10 -262144
-1 -1;
#X msg 1131 41 50;
#X msg 1152 21 350;
#X msg 1114 64 160;
#X text 900 157 RESET;
#X msg 788 -305 1;
#X obj 203 174 hradio 50 1 0 2 empty empty empty 0 -8 0 10 -262144
-1 -1 0;
#X obj -189 -269 openpanel;
#X obj -74 -269 adc~;
#X msg -189 -231 open \$1 cr;
#X obj -74 -231 spigot~;
#X msg -242 -249 start;
#X obj -242 -285 bng 15 250 50 0 empty empty empty 17 7 0 10 -262144
-1 -1;
#X obj -24 -249 tgl 15 0 empty empty empty 17 7 0 10 -262144 -1 -1
0 1;
#X msg 15 -285 0;
#X msg -25 -284 1;
#X text 748 150 underwater;
#X text 751 160 effect;
#X text 695 150 Robotic;
#X text 701 160 sound;
#X obj 1091 88 cnv 15 100 60 empty empty empty 20 12 0 14 -233017 -66577
0;
#X text 206 152 openfile;
#X text 266 153 live;
#X obj 33 -343 route 0 1 2 3;
#X msg 788 -330 0;
#X msg 196 -248 0;
#X msg 233 -247 1;
#X msg 270 -247 1;
#X msg 311 -246 1;
#X msg 348 -246 1;
#X msg 152 -186 1;
#X msg 226 -185 1;
#X msg 267 -184 1;
#X msg 303 -184 1;
#X msg 188 -185 0;
#X obj 104 322 feedback;
#X text 195 -273 feedback;
#X text 153 -206 frequency shifter;
#X msg 907 -270 1;
#X msg 944 -269 1;
#X msg 1022 -268 1;
#X msg 1058 -268 1;
#X msg 981 -269 0;
#X text 905 -291 flanger;
#X msg 1118 -165 1;
#X msg 1155 -165 1;
#X msg 1192 -165 1;
#X msg 1269 -164 1;
#X msg 1233 -164 0;
#X text 1114 -186 vibrato;
#X text 1050 -239 ringmodulation;
#X msg 1053 -217 1;
#X msg 1090 -216 1;
#X msg 1127 -216 1;
#X msg 1168 -215 1;
#X msg 1204 -215 0;
#X obj 826 888 outlet~;
#X obj -122 -257 tgl 15 0 empty empty empty 17 7 0 10 -262144 -1 -1
0 1;
#X msg -140 -293 1;
#X msg -100 -291 0;
#X obj -188 -144 spigot~;
#X connect 0 0 48 0;
#X connect 1 0 101 0;
#X connect 1 1 23 0;
#X connect 2 0 97 0;
#X connect 3 0 2 1;
#X connect 4 0 97 0;
#X connect 5 0 4 1;
#X connect 6 0 4 0;
#X connect 7 0 21 0;
#X connect 8 0 10 0;
#X connect 9 0 10 1;
#X connect 10 0 97 0;
#X connect 11 0 12 0;
#X connect 12 0 97 0;
#X connect 13 0 12 1;
#X connect 14 0 15 0;
#X connect 15 0 97 0;
#X connect 16 0 15 1;
#X connect 17 0 5 0;
#X connect 18 0 9 0;
#X connect 19 0 13 0;
#X connect 20 0 16 0;
#X connect 21 0 22 0;
#X connect 21 0 29 0;
#X connect 21 0 66 0;
#X connect 21 0 67 0;
#X connect 21 0 68 0;
#X connect 21 0 69 0;
#X connect 21 0 70 0;
#X connect 21 1 17 0;
#X connect 21 1 30 0;
#X connect 21 1 71 0;
#X connect 21 1 75 0;
#X connect 21 1 72 0;
#X connect 21 1 73 0;
#X connect 21 1 74 0;
#X connect 21 2 18 0;
#X connect 21 2 31 0;
#X connect 21 2 79 0;
#X connect 21 2 80 0;
#X connect 21 2 83 0;
#X connect 21 2 81 0;
#X connect 21 2 82 0;
#X connect 21 3 19 0;
#X connect 21 3 37 0;
#X connect 21 3 85 0;
#X connect 21 3 86 0;
#X connect 21 3 87 0;
#X connect 21 3 89 0;
#X connect 21 3 88 0;
#X connect 21 4 20 0;
#X connect 21 4 41 0;
#X connect 21 4 92 0;
#X connect 21 4 93 0;
#X connect 21 4 94 0;
#X connect 21 4 95 0;
#X connect 21 4 96 0;
#X connect 21 5 23 0;
#X connect 21 5 46 0;
#X connect 21 5 65 0;
#X connect 22 0 3 0;
#X connect 23 0 6 2;
#X connect 23 0 8 5;
#X connect 23 0 11 3;
#X connect 23 0 14 4;
#X connect 23 0 76 4;
#X connect 24 0 76 1;
#X connect 25 0 76 3;
#X connect 26 0 76 2;
#X connect 28 0 6 1;
#X connect 29 0 24 0;
#X connect 29 0 26 0;
#X connect 29 0 25 0;
#X connect 30 0 28 0;
#X connect 31 0 34 0;
#X connect 31 0 33 0;
#X connect 31 0 32 0;
#X connect 31 0 35 0;
#X connect 32 0 8 3;
#X connect 33 0 8 2;
#X connect 34 0 8 1;
#X connect 35 0 8 4;
#X connect 37 0 38 0;
#X connect 37 0 39 0;
#X connect 38 0 11 1;
#X connect 39 0 11 2;
#X connect 41 0 44 0;
#X connect 41 0 42 0;
#X connect 41 0 43 0;
#X connect 42 0 14 2;
#X connect 43 0 14 3;
#X connect 44 0 14 1;
#X connect 46 0 5 0;
#X connect 46 0 9 0;
#X connect 46 0 13 0;
#X connect 46 0 16 0;
#X connect 46 0 20 0;
#X connect 46 0 19 0;
#X connect 46 0 18 0;
#X connect 46 0 17 0;
#X connect 46 0 22 0;
#X connect 47 0 64 0;
#X connect 48 0 50 0;
#X connect 49 0 51 0;
#X connect 50 0 1 0;
#X connect 50 0 53 0;
#X connect 51 0 6 0;
#X connect 51 0 8 0;
#X connect 51 0 11 0;
#X connect 51 0 14 0;
#X connect 51 0 76 0;
#X connect 52 0 1 0;
#X connect 53 0 52 0;
#X connect 54 0 51 1;
#X connect 55 0 54 0;
#X connect 56 0 54 0;
#X connect 64 0 0 0;
#X connect 64 0 56 0;
#X connect 64 0 100 0;
#X connect 64 1 49 0;
#X connect 64 1 55 0;
#X connect 64 1 99 0;
#X connect 65 0 3 0;
#X connect 66 0 22 0;
#X connect 67 0 6 2;
#X connect 67 0 17 0;
#X connect 68 0 18 0;
#X connect 69 0 19 0;
#X connect 70 0 20 0;
#X connect 71 0 22 0;
#X connect 72 0 18 0;
#X connect 73 0 19 0;
#X connect 74 0 20 0;
#X connect 75 0 17 0;
#X connect 76 0 2 0;
#X connect 79 0 22 0;
#X connect 80 0 17 0;
#X connect 81 0 19 0;
#X connect 82 0 20 0;
#X connect 83 0 18 0;
#X connect 85 0 22 0;
#X connect 86 0 17 0;
#X connect 87 0 18 0;
#X connect 88 0 20 0;
#X connect 89 0 19 0;
#X connect 92 0 22 0;
#X connect 93 0 17 0;
#X connect 94 0 18 0;
#X connect 95 0 19 0;
#X connect 98 0 101 1;
#X connect 99 0 98 0;
#X connect 100 0 98 0;
#X connect 101 0 76 0;
#X connect 101 0 6 0;
#X connect 101 0 8 0;
#X connect 101 0 11 0;
#X connect 101 0 14 0;
#X coords 0 -1 1 1 1550 600 1 100 100;
