#N canvas 45 54 793 734 10;
#X obj 109 237 inlet~;
#X obj 232 621 outlet~;
#X obj 176 392 sig~;
#X obj 175 425 vd~ delayline;
#X floatatom 176 362 5 0 0 0 - - -;
#X obj 247 232 hsl 128 15 0 1000 0 0 empty empty empty -2 -8 0 10 -204786
-1 -1 0 1;
#X obj 26 317 delwrite~ delayline 1000;
#X obj 385 390 LFO~;
#X obj 110 559 *~;
#X obj 247 471 *~;
#X obj 231 577 +~;
#X obj -11 512 - 1;
#X obj -11 542 * -1;
#X obj 247 196 hsl 128 15 0 1 0 0 empty empty empty -2 -8 0 10 -262130
-1 -1 0 1;
#X obj 248 518 *~;
#X text 384 234 <- Adjust the flanger level;
#X text 224 212 Original;
#X text 341 212 Processed;
#X text 381 195 <- Mixer;
#X obj 245 273 hsl 128 15 0 50 0 0 empty empty empty -2 -8 0 10 -261234
-1 -1 0 1;
#X obj 244 312 hsl 128 15 0 1 0 0 empty empty empty -2 -8 0 10 -261682
-1 -1 0 1;
#X text 380 271 <- adjust the speed;
#X text 382 310 <- adjust the depth;
#X text 362 246 1000;
#X text 240 246 0;
#X text 239 291 0;
#X text 365 289 50;
#X text 236 329 0;
#X text 367 327 1;
#X obj 463 191 bng 15 250 50 0 empty empty empty 17 7 0 10 -191407
-1 -1;
#X text 483 190 <- RESET;
#X msg 323 66 0;
#X obj 251 21 inlet;
#X obj 303 20 inlet;
#X obj 369 19 inlet;
#X obj 434 21 inlet;
#X msg 444 73 0;
#X msg 497 81 0;
#X obj 559 44 inlet;
#X connect 0 0 8 0;
#X connect 0 0 6 0;
#X connect 2 0 3 0;
#X connect 3 0 9 0;
#X connect 4 0 2 0;
#X connect 5 0 4 0;
#X connect 7 0 9 1;
#X connect 8 0 10 0;
#X connect 9 0 14 0;
#X connect 10 0 1 0;
#X connect 11 0 12 0;
#X connect 12 0 8 1;
#X connect 13 0 11 0;
#X connect 13 0 14 1;
#X connect 14 0 10 1;
#X connect 19 0 7 0;
#X connect 20 0 7 1;
#X connect 29 0 31 0;
#X connect 29 0 36 0;
#X connect 29 0 37 0;
#X connect 31 0 13 0;
#X connect 31 0 5 0;
#X connect 32 0 13 0;
#X connect 33 0 5 0;
#X connect 34 0 19 0;
#X connect 35 0 20 0;
#X connect 36 0 19 0;
#X connect 37 0 20 0;
#X connect 38 0 29 0;
#X coords 0 -1 1 1 350 230 1 220 120;
