#N canvas 140 175 860 704 10;
#X obj 305 376 sig~;
#X obj 291 524 +~;
#X floatatom 305 346 5 0 0 0 - - -;
#X obj 473 315 hsl 128 15 0 1000 0 0 empty empty empty -2 -8 0 10 -204786
-1 -1 0 1;
#X obj 423 566 sig~;
#X floatatom 423 536 5 0 0 0 - - -;
#X obj 473 347 hsl 128 15 0 1 0 0 empty empty empty -2 -8 0 10 -204786
-1 -1 0 1;
#X obj 409 601 *~;
#X obj 305 445 *~;
#X obj 248 508 *~;
#X obj 45 461 - 1;
#X obj 45 491 * -1;
#X obj 474 276 hsl 128 15 0 1 0 0 empty empty empty -2 -8 0 10 -262130
-1 -1 0 1;
#X obj 265 203 inlet~;
#X obj 290 572 outlet~;
#X text 452 290 Original;
#X text 563 290 Processed;
#X text 596 361 1;
#X text 468 361 0;
#X text 588 327 1000;
#X text 467 329 0;
#X text 616 275 <- Mixer;
#X text 616 314 <- Adjust the delay;
#X text 615 347 <- Adjust the feedback gain;
#X obj 295 239 r~ \$0-feedback;
#X obj 408 645 s~ \$0-feedback;
#X obj 304 409 vd~ \$0-delayline;
#X obj 294 282 delwrite~ \$0-delayline 1000;
#X obj 695 275 bng 15 250 50 0 empty empty empty 17 7 0 10 -191407
-1 -1;
#X text 715 274 <- RESET;
#X obj 460 68 bang;
#X msg 466 201 0;
#X msg 519 200 0;
#X msg 571 200 0;
#X obj 593 99 inlet;
#X obj 714 98 inlet;
#X obj 654 99 inlet;
#X obj 787 158 inlet;
#X connect 0 0 26 0;
#X connect 1 0 7 0;
#X connect 1 0 14 0;
#X connect 2 0 0 0;
#X connect 3 0 2 0;
#X connect 4 0 7 1;
#X connect 5 0 4 0;
#X connect 6 0 5 0;
#X connect 7 0 25 0;
#X connect 8 0 1 1;
#X connect 9 0 1 0;
#X connect 10 0 11 0;
#X connect 11 0 9 1;
#X connect 12 0 10 0;
#X connect 12 0 8 1;
#X connect 13 0 9 0;
#X connect 13 0 27 0;
#X connect 24 0 27 0;
#X connect 26 0 8 0;
#X connect 28 0 33 0;
#X connect 28 0 32 0;
#X connect 28 0 31 0;
#X connect 31 0 12 0;
#X connect 32 0 3 0;
#X connect 33 0 6 0;
#X connect 34 0 12 0;
#X connect 35 0 6 0;
#X connect 36 0 3 0;
#X connect 37 0 28 0;
#X coords 0 -1 1 1 335 140 1 450 240;