#N canvas 69 152 583 399 10;
#X obj 419 37 cnv 15 100 60 empty empty empty 20 12 0 14 -233017 -66577
0;
#X obj 155 129 hsl 128 15 0 127 0 0 empty empty empty -2 -8 0 10 -262144
-1 -1 0 1;
#X obj 155 161 hsl 128 15 0 127 0 0 empty empty empty -2 -8 0 10 -262144
-1 -1 0 1;
#X obj 155 197 hsl 128 15 0 127 0 0 empty empty empty -2 -8 0 10 -262144
-1 -1 0 1;
#X floatatom 311 129 5 0 0 0 - - -;
#X floatatom 311 163 5 0 0 0 - - -;
#X floatatom 311 196 5 0 0 0 - - -;
#X obj 153 229 bng 15 250 50 0 empty empty empty 17 7 0 10 -262144
-1 -1;
#X obj 198 228 tgl 15 0 empty empty empty 17 7 0 10 -262144 -1 -1 0
1;
#X obj 146 21 inlet~;
#X obj 146 56 spigot~;
#X obj 205 24 r active;
#X obj 101 79 s~ bypass;
#X obj 207 79 delwrite~ del 5000;
#X connect 9 0 10 0;
#X connect 10 0 12 0;
#X connect 10 1 13 0;
#X connect 11 0 10 1;
#X coords 0 -1 1 1 300 150 1 100 100;
