#N canvas 44 215 678 472 10;
#X obj 168 -96 inlet;
#X obj 120 240 readsf~;
#X obj 35 144 delay 500;
#X obj 120 130 bng 15 250 50 0 empty empty empty 17 7 0 10 -262144
-1 -1;
#X msg 35 223 start;
#X msg 120 187 open speech.wav;
#X obj 167 274 adc~;
#X obj 119 380 outlet~;
#X obj 120 325 multiplex~ 0 1 2;
#X obj 347 189 readsf~;
#X obj 262 93 delay 500;
#X obj 347 79 bng 15 250 50 0 empty empty empty 17 7 0 10 -262144 -1
-1;
#X msg 262 172 start;
#X obj 347 119 openpanel;
#X msg 347 151 open \$1 \, 1;
#X obj 445 206 bng 15 250 50 0 empty empty empty 17 7 0 10 -262144
-1 -1;
#X obj 168 -57 route 0 1 2 3 4 5 6 7;
#X obj 490 80 outlet;
#X connect 0 0 16 0;
#X connect 1 0 8 0;
#X connect 1 1 3 0;
#X connect 2 0 4 0;
#X connect 3 0 2 0;
#X connect 3 0 5 0;
#X connect 4 0 1 0;
#X connect 5 0 1 0;
#X connect 6 0 8 1;
#X connect 8 0 7 0;
#X connect 9 0 8 2;
#X connect 9 1 11 0;
#X connect 9 1 15 0;
#X connect 10 0 12 0;
#X connect 11 0 10 0;
#X connect 11 0 13 0;
#X connect 12 0 9 0;
#X connect 13 0 14 0;
#X connect 14 0 9 0;
#X connect 15 0 14 0;
#X connect 16 0 3 0;
#X connect 16 0 8 0;
#X connect 16 1 8 0;
#X connect 16 2 11 0;
#X connect 16 2 8 0;
#X connect 16 3 17 0;
#X connect 16 4 17 0;
#X connect 16 5 17 0;
#X connect 16 6 17 0;
#X connect 16 7 17 0;
