#N canvas 246 95 912 803 10;
#X obj 247 387 inlet~;
#X obj 247 554 *~;
#X obj 246 474 hilbert~;
#X obj 246 596 -~;
#X obj 292 557 *~;
#X obj 325 524 cos~;
#X obj 376 528 cos~;
#X obj 324 449 phasor~;
#X obj 375 489 +~ -0.25;
#X obj 324 420 sig~;
#X msg 322 111 0;
#X obj 392 250 hsl 128 15 -1000 1000 0 0 empty empty empty -2 -8 0
10 -204786 -1 -1 6350 1;
#X floatatom 324 383 5 0 0 0 - - -;
#X obj 322 12 loadbang;
#X obj 168 742 *~;
#X obj 228 760 +~;
#X obj 451 495 LFO~;
#X obj 245 646 *~;
#X obj 183 512 - 1;
#X obj 183 542 * -1;
#X obj 394 211 hsl 128 15 0 1 0 0 empty empty empty -2 -8 0 10 -262130
-1 -1 0 1;
#X obj 244 707 *~;
#X obj 227 814 outlet~;
#X text 482 224 Processed;
#X text 532 210 <- Mixer;
#X text 370 226 Original;
#X text 528 249 <- Adjust the vibrato effect;
#X obj 411 798 sig~;
#X floatatom 411 768 5 0 0 0 - - -;
#X obj 392 287 hsl 128 15 0 1 0 0 empty empty empty -2 -8 0 10 -204786
-1 -1 0 1;
#X obj 397 833 *~;
#X obj 396 877 s~ \$0-feedback;
#X obj 556 689 r~ \$0-feedback;
#X obj 556 718 delwrite~ \$0-delayline 1000;
#X obj 604 831 sig~;
#X floatatom 604 801 5 0 0 0 - - -;
#X obj 607 769 hsl 128 15 0 1000 0 0 empty empty empty -2 -8 0 10 -262144
-1 -1 0 1;
#X obj 603 864 vd~ \$0-delayline;
#X text 528 288 <- Adjust the feedback gain;
#X obj 390 324 hsl 128 15 0 50 0 0 empty empty empty -2 -8 0 10 -261234
-1 -1 0 1;
#X obj 389 363 hsl 128 15 0 1 0 0 empty empty empty -2 -8 0 10 -261682
-1 -1 0 1;
#X text 525 322 <- adjust the speed;
#X text 527 361 <- adjust the depth;
#X text 370 266 -1000;
#X text 508 263 1000;
#X text 385 301 0;
#X text 518 300 1;
#X text 385 339 0;
#X text 511 337 50;
#X text 384 379 0;
#X text 515 377 1;
#X obj 615 209 bng 15 250 50 0 empty empty empty 17 7 0 10 -191407
-1 -1;
#X text 635 208 <- RESET;
#X msg 496 112 0;
#X obj 471 84 inlet;
#X obj 546 83 inlet;
#X obj 613 79 inlet;
#X obj 665 77 inlet;
#X obj 732 84 inlet;
#X obj 777 143 inlet;
#X connect 0 0 14 0;
#X connect 0 0 2 0;
#X connect 1 0 3 0;
#X connect 2 0 1 0;
#X connect 2 1 4 0;
#X connect 3 0 17 0;
#X connect 4 0 3 1;
#X connect 5 0 1 1;
#X connect 6 0 4 1;
#X connect 7 0 5 0;
#X connect 7 0 8 0;
#X connect 8 0 6 0;
#X connect 9 0 7 0;
#X connect 10 0 11 0;
#X connect 11 0 12 0;
#X connect 12 0 9 0;
#X connect 13 0 10 0;
#X connect 14 0 15 0;
#X connect 15 0 22 0;
#X connect 15 0 30 0;
#X connect 16 0 17 1;
#X connect 17 0 33 0;
#X connect 17 0 21 0;
#X connect 18 0 19 0;
#X connect 19 0 14 1;
#X connect 20 0 18 0;
#X connect 20 0 21 1;
#X connect 21 0 15 1;
#X connect 27 0 30 1;
#X connect 28 0 27 0;
#X connect 29 0 28 0;
#X connect 30 0 31 0;
#X connect 32 0 33 0;
#X connect 34 0 37 0;
#X connect 35 0 34 0;
#X connect 36 0 35 0;
#X connect 37 0 21 0;
#X connect 39 0 16 0;
#X connect 40 0 16 1;
#X connect 51 0 53 0;
#X connect 53 0 20 0;
#X connect 53 0 11 0;
#X connect 53 0 29 0;
#X connect 53 0 39 0;
#X connect 53 0 40 0;
#X connect 54 0 20 0;
#X connect 55 0 11 0;
#X connect 56 0 29 0;
#X connect 57 0 39 0;
#X connect 58 0 40 0;
#X connect 59 0 51 0;
#X coords 0 -1 1 1 350 250 1 370 150;