#N canvas 0 28 1440 803 10;
#X text 509 152 PRE-RECORDED ->;
#X text 638 154 LIVE AUDIO ->;
#X msg 512 14 0 0;
#X msg 514 35 1 1;
#X msg 510 55 2 2;
#X text 752 155 CHOOSE YOUR OWN ->;
#X obj 1132 771 outlet~;
#X obj 1112 276 tgl 15 0 empty empty empty 17 7 0 10 -262144 -1 -1
0 1;
#X obj 1519 257 tgl 15 0 empty empty empty 17 7 0 10 -262144 -1 -1
0 1;
#X obj 696 484 tgl 15 0 empty empty empty 17 7 0 10 -262144 -1 -1 0
1;
#X obj 1115 533 tgl 15 0 empty empty empty 17 7 0 10 -262144 -1 -1
0 1;
#X obj 1505 500 tgl 15 0 empty empty empty 17 7 0 10 -262144 -1 -1
0 1;
#X obj 718 232 tgl 15 0 empty empty empty 17 7 0 10 -262144 -1 -1 0
1;
#X obj 1725 252 spigot~;
#X obj 1254 677 spigot~;
#X obj 332 234 spigot~;
#X obj 1440 674 spigot~;
#X obj 1075 674 spigot~;
#X obj 646 668 spigot~;
#X text 734 231 <- TOGLLE ON/OFF;
#X text 1128 274 <- TOGLLE ON/OFF;
#X text 1536 255 <- TOGLLE ON/OFF;
#X text 713 483 <- TOGLLE ON/OFF;
#X text 1135 532 <- TOGLLE ON/OFF;
#X text 1524 497 <- TOGLLE ON/OFF;
#X obj 1458 158 bng 15 250 50 0 empty empty empty 17 7 0 10 -232576
-1 -1;
#X obj 1176 155 bng 15 250 50 0 empty empty empty 17 7 0 10 -232576
-1 -1;
#X obj 1250 158 bng 15 250 50 0 empty empty empty 17 7 0 10 -232576
-1 -1;
#X obj 1334 156 bng 15 250 50 0 empty empty empty 17 7 0 10 -232576
-1 -1;
#X msg 1520 15 1;
#X msg 1746 35 50;
#X msg 1747 52 350;
#X msg 1750 193 10;
#X msg 1748 174 0.4;
#X msg 1746 155 5;
#X msg 1748 136 1;
#X msg 1300 4 0.9;
#X msg 1298 22 100;
#X msg 1300 41 0.9;
#X msg 1741 70 1000;
#X msg 1520 1 40;
#X msg 1745 88 0.9;
#X obj 605 154 bng 15 250 50 0 empty empty empty 17 7 0 10 -203904
-1 -1;
#X obj 726 153 bng 15 250 50 0 empty empty empty 17 7 0 10 -203904
-1 -1;
#X obj 868 153 bng 15 250 50 0 empty empty empty 17 7 0 10 -203904
-1 -1;
#X obj 518 731 *~;
#X obj 635 740 spigot~;
#X obj 1566 157 bng 15 250 50 0 empty empty empty 17 7 0 10 -232576
-1 -1;
#X text 506 132 Choose a source:;
#X text 1126 154 C3PO ->;
#X text 1197 155 DALEK ->;
#X text 1273 156 GOLLUM ->;
#X text 1375 157 UNDERWATER ->;
#X text 1492 157 PRESET 1 ->;
#X text 1125 134 Choose a preset:;
#X text 577 216 ~~VIBRATO~~;
#X text 949 273 ~~FEEDBACK AND DELAY~~;
#X text 568 499 ~~TREMOLO~~;
#X text 947 527 ~~FREQUENCY SHIFT~~;
#X text 1359 506 ~~RING MODOLATION~~;
#X text 1367 237 ~~FLANGER~~;
#X obj 610 24 loadbang;
#X obj 513 471 tremolo;
#X obj 485 194 vibrato;
#X obj 1326 466 ringmodulation;
#X obj 891 506 freqshift;
#X obj 1289 205 flanger;
#X obj 893 260 feedback;
#X obj 358 39 liveOrRecord;
#X connect 2 0 68 0;
#X connect 3 0 68 0;
#X connect 4 0 68 0;
#X connect 7 0 14 1;
#X connect 8 0 13 1;
#X connect 9 0 18 1;
#X connect 10 0 17 1;
#X connect 11 0 16 1;
#X connect 12 0 15 1;
#X connect 13 0 6 0;
#X connect 14 0 6 0;
#X connect 15 0 6 0;
#X connect 15 0 45 0;
#X connect 16 0 6 0;
#X connect 17 0 6 0;
#X connect 17 0 45 1;
#X connect 18 0 6 0;
#X connect 25 0 32 0;
#X connect 25 0 33 0;
#X connect 25 0 34 0;
#X connect 25 0 35 0;
#X connect 25 0 62 1;
#X connect 25 0 63 6;
#X connect 25 0 64 3;
#X connect 25 0 65 1;
#X connect 25 0 67 4;
#X connect 26 0 36 0;
#X connect 26 0 37 0;
#X connect 26 0 38 0;
#X connect 26 0 62 1;
#X connect 26 0 63 6;
#X connect 26 0 64 3;
#X connect 26 0 65 1;
#X connect 26 0 66 5;
#X connect 27 0 40 0;
#X connect 27 0 29 0;
#X connect 27 0 62 1;
#X connect 27 0 63 6;
#X connect 27 0 65 1;
#X connect 27 0 66 5;
#X connect 27 0 67 4;
#X connect 28 0 30 0;
#X connect 28 0 31 0;
#X connect 28 0 41 0;
#X connect 28 0 39 0;
#X connect 28 0 62 1;
#X connect 28 0 64 3;
#X connect 28 0 65 1;
#X connect 28 0 66 5;
#X connect 28 0 67 4;
#X connect 29 0 64 2;
#X connect 30 0 63 4;
#X connect 31 0 63 5;
#X connect 32 0 66 3;
#X connect 33 0 66 4;
#X connect 34 0 66 2;
#X connect 35 0 66 1;
#X connect 36 0 67 3;
#X connect 37 0 67 2;
#X connect 38 0 67 1;
#X connect 39 0 63 2;
#X connect 40 0 64 1;
#X connect 41 0 63 1;
#X connect 42 0 2 0;
#X connect 43 0 3 0;
#X connect 44 0 4 0;
#X connect 45 0 46 0;
#X connect 46 0 6 0;
#X connect 61 0 62 1;
#X connect 61 0 63 6;
#X connect 61 0 64 3;
#X connect 61 0 65 1;
#X connect 61 0 66 5;
#X connect 61 0 67 4;
#X connect 62 0 18 0;
#X connect 63 0 15 0;
#X connect 64 0 16 0;
#X connect 65 0 17 0;
#X connect 66 0 13 0;
#X connect 67 0 14 0;
#X connect 68 0 62 0;
#X connect 68 0 63 0;
#X connect 68 0 64 0;
#X connect 68 0 65 0;
#X connect 68 0 66 0;
#X connect 68 0 67 0;
#X coords 0 -1 1 1 1225 550 1 450 100;
