#N canvas 188 101 555 690 10;
#X obj 5 -62 inlet~;
#N canvas 253 56 952 703 probe~ 0;
#N canvas 0 22 450 300 (subpatch) 0;
#X array \$0-Waveform 441 float 0;
#X coords 0 1 440 -1 500 250 1;
#X restore 56 87 graph;
#N canvas 0 22 450 300 (subpatch) 0;
#X array \$0-Spectrum 64 float 0;
#X coords 0 1 63 0 500 300 1;
#X restore 56 384 graph;
#X obj 710 26 inlet~;
#X text 711 5 AUDIO;
#X obj 638 26 loadbang;
#X obj 647 79 metro 100;
#N canvas 977 452 710 480 spectrum 0;
#X obj 33 -9 inlet~;
#X obj 245 -9 inlet;
#X obj 61 194 tabwrite~ \$0-Spectrum;
#X obj 33 77 rfft~;
#X obj 322 -8 loadbang;
#X obj 322 209 block~;
#X text 496 106 <= ~12 msecs;
#N canvas 0 22 450 300 (subpatch) 0;
#X array \$0-Hanning 512 float 0;
#X coords 0 1 511 0 200 140 1;
#X restore 405 271 graph;
#X msg 405 176 resize \$1;
#X msg 318 280 0;
#X obj 233 328 osc~;
#X obj 233 280 samplerate~;
#X obj 233 351 *~ -0.5;
#X obj 233 374 +~ 0.5;
#X obj 221 257 bng 15 250 50 0 empty empty empty 0 -6 0 8 -262144 -1
-1;
#X obj 221 399 tabwrite~ \$0-Hanning;
#X obj 233 304 /;
#X floatatom 322 139 5 0 0 0 - - -;
#X msg 449 106 512;
#X obj 405 209 s \$0-Hanning;
#X obj 221 209 t b f;
#X obj 33 47 *~;
#X obj 48 18 tabreceive~ \$0-Hanning;
#X text 33 -39 AUDIO;
#X text 246 -39 SYNC;
#X msg 448 2 8192;
#X text 495 2 <= ~190 msecs;
#X text 495 28 <= ~93 msecs;
#X msg 448 28 4096;
#X msg 448 53 2048;
#X text 495 53 <= ~46 msecs;
#X msg 449 79 1024;
#X text 496 80 <= ~23 msecs;
#X text 62 46 <= window signal;
#X text 445 -24 Set Window/Block Size;
#X text 356 26 <= default;
#X obj 61 159 clip~ 0 1;
#X msg 256 27 \; pd dsp 1;
#X msg 154 288 \; pd dsp 1;
#X msg 504 209 resize \$1;
#X obj 504 241 s \$0-Spectrum;
#X text 410 149 resize the arrays;
#X obj 28 116 framp~;
#X text 74 76 <= compute the real FFT;
#X text 70 115 <= compute the frequencies & amplitudes;
#X text 126 157 <= don't draw outside window;
#X text 252 252 Create Hanning window;
#X obj 390 -8 inlet;
#X msg 322 27 8192;
#X text 387 -39 WINDOW;
#X obj 606 -9 inlet;
#X text 595 -38 BANDWIDTH;
#X msg 592 195 2;
#X msg 592 173 4;
#X msg 592 151 8;
#X msg 592 129 16;
#X text 624 129 <= 2.75 kHz;
#X text 625 152 <= 5.5 kHz;
#X text 625 173 <= 11 kHz;
#X text 625 194 <= 22 kHz;
#X obj 606 72 select 0 1 2 3;
#X obj 492 132 t b f;
#X obj 504 176 / 2;
#X msg 322 176 set \$1 4 1;
#X obj 248 233 / 4;
#X connect 0 0 21 0;
#X connect 1 0 2 0;
#X connect 3 0 42 0;
#X connect 3 1 42 1;
#X connect 4 0 48 0;
#X connect 4 0 37 0;
#X connect 8 0 19 0;
#X connect 9 0 10 1;
#X connect 10 0 12 0;
#X connect 11 0 16 0;
#X connect 12 0 13 0;
#X connect 13 0 15 0;
#X connect 14 0 11 0;
#X connect 14 0 9 0;
#X connect 14 0 15 0;
#X connect 16 0 10 0;
#X connect 17 0 63 0;
#X connect 17 0 8 0;
#X connect 17 0 20 0;
#X connect 17 0 62 0;
#X connect 18 0 17 0;
#X connect 20 0 14 0;
#X connect 20 0 38 0;
#X connect 20 1 64 0;
#X connect 21 0 3 0;
#X connect 22 0 21 1;
#X connect 25 0 17 0;
#X connect 28 0 17 0;
#X connect 29 0 17 0;
#X connect 31 0 17 0;
#X connect 36 0 2 0;
#X connect 39 0 40 0;
#X connect 42 1 36 0;
#X connect 47 0 17 0;
#X connect 48 0 17 0;
#X connect 50 0 60 0;
#X connect 52 0 61 0;
#X connect 53 0 61 0;
#X connect 54 0 61 0;
#X connect 55 0 61 0;
#X connect 60 0 55 0;
#X connect 60 1 54 0;
#X connect 60 2 53 0;
#X connect 60 3 52 0;
#X connect 61 0 17 0;
#X connect 61 1 62 1;
#X connect 62 0 39 0;
#X connect 63 0 5 0;
#X connect 64 0 16 1;
#X restore 709 612 pd spectrum;
#X obj 736 158 tabwrite~ \$0-Waveform;
#X obj 560 89 vsl 15 135 0 10 0 0 empty empty empty 0 -9 0 10 -262144
-1 -1 6700 1;
#X obj 734 103 *~;
#X obj 560 385 vsl 15 135 0 500 0 0 empty empty empty 0 -9 0 10 -262144
-1 -1 2680 1;
#X obj 709 447 *~;
#X obj 735 131 clip~ -1 1;
#X msg 588 58 5;
#X text 96 31 'graph on parent';
#X msg 588 334 100;
#X obj 774 510 rzero~ 1;
#X obj 742 545 *~;
#X obj 218 362 tgl 15 0 empty empty empty 17 7 0 10 -262144 -1 -1 1
1;
#X obj 708 545 *~;
#X obj 723 479 swap 1;
#X obj 723 514 -;
#X msg 772 574 8192;
#X msg 817 574 512;
#X obj 531 347 vradio 15 1 0 2 empty empty empty 0 -8 0 10 -262144
-1 -1 1;
#X obj 772 545 select 0;
#X text 463 345 Narrowband;
#X text 475 359 Wideband;
#X obj 656 52 bng 15 250 50 0 empty empty empty 17 7 0 10 -262144 -1
-1;
#X obj 860 26 inlet;
#X text 845 5 WINDOW SIZE;
#X obj 362 366 hradio 15 1 1 4 empty empty empty 0 -8 0 10 -262144
-1 -1 1;
#X text 343 348 2.75 5.5 11 22 kHz;
#X msg 732 357 resize \$1;
#X obj 732 390 s \$0-Waveform;
#X msg 809 260 441;
#X msg 809 282 882;
#X text 841 282 <= 20 msecs;
#X msg 809 304 1764;
#X text 841 304 <= 40 msecs;
#X msg 809 326 3528;
#X text 841 326 <= 80 msecs;
#X text 841 238 <= 5 msecs;
#X text 841 259 <= 10 msecs;
#X msg 809 193 44.1;
#X text 841 193 <= 1 msecs;
#X msg 809 238 220;
#X text 841 215 <= 2 msecs;
#X msg 809 216 88.2;
#X obj 339 67 hradio 15 1 0 7 empty empty empty 0 -8 0 10 -262144 -1
-1 3;
#X text 340 51 1 2 5 10 20 40 80 msecs;
#X obj 624 266 select 0 1 2 3 4 5 6;
#X text 137 360 Pre-emphasis;
#X text 257 361 Frequency Range;
#X text 271 59 Timescale;
#X msg 613 296 1;
#X msg 368 16 3;
#X obj 780 26 inlet;
#X text 774 5 SNAPSHOT;
#X obj 647 129 t b b;
#X obj 214 62 tgl 15 0 empty empty empty 17 7 0 10 -262144 -1 -1 1
1;
#X obj 647 104 spigot;
#X text 142 60 Continuous;
#X obj 708 655 block~ 64 1 1;
#X connect 2 0 9 0;
#X connect 2 0 11 0;
#X connect 4 0 5 0;
#X connect 4 0 15 0;
#X connect 4 0 13 0;
#X connect 4 0 24 0;
#X connect 4 0 18 0;
#X connect 4 0 56 0;
#X connect 4 0 55 0;
#X connect 4 0 60 0;
#X connect 5 0 61 0;
#X connect 8 0 9 1;
#X connect 9 0 12 0;
#X connect 10 0 11 1;
#X connect 11 0 16 0;
#X connect 11 0 19 0;
#X connect 12 0 7 0;
#X connect 13 0 8 0;
#X connect 15 0 10 0;
#X connect 16 0 17 0;
#X connect 17 0 6 0;
#X connect 18 0 17 1;
#X connect 18 0 20 0;
#X connect 19 0 6 0;
#X connect 20 0 21 0;
#X connect 20 1 21 1;
#X connect 21 0 19 1;
#X connect 22 0 6 2;
#X connect 23 0 6 2;
#X connect 24 0 25 0;
#X connect 25 0 22 0;
#X connect 25 1 23 0;
#X connect 28 0 5 0;
#X connect 29 0 6 2;
#X connect 31 0 6 3;
#X connect 33 0 34 0;
#X connect 35 0 33 0;
#X connect 36 0 33 0;
#X connect 38 0 33 0;
#X connect 40 0 33 0;
#X connect 44 0 33 0;
#X connect 46 0 33 0;
#X connect 48 0 33 0;
#X connect 49 0 51 0;
#X connect 51 0 44 0;
#X connect 51 1 48 0;
#X connect 51 2 46 0;
#X connect 51 3 35 0;
#X connect 51 4 36 0;
#X connect 51 5 38 0;
#X connect 51 6 40 0;
#X connect 55 0 31 0;
#X connect 56 0 49 0;
#X connect 57 0 59 0;
#X connect 59 0 6 1;
#X connect 59 1 7 0;
#X connect 60 0 61 1;
#X connect 61 0 59 0;
#X coords 0 -1 1 1 530 640 1 50 50;
#X restore 5 -38 pd probe~;
#X obj 500 -63 inlet;
#X obj 266 -60 inlet;
#X obj 233 -58 bng 15 250 50 0 empty empty empty 17 7 0 10 -262144
-1 -1;
#X text 174 -59 Snapshot;
#X connect 0 0 1 0;
#X connect 2 0 1 2;
#X connect 3 0 1 1;
#X connect 4 0 1 1;
